<svg width="18" height="18" viewBox="0 0 18 18" fill="#0A2D47" xmlns="http://www.w3.org/2000/svg">
<path d="M8.8 0C9.42437 4.67359 13.1027 8.34928 17.7767 8.97033L18 9L17.7767 9.02967C13.1027 9.65072 9.42437 13.3264 8.8 18L8.77735 17.8304C8.16547 13.2504 4.57627 9.63948 0 9C4.57627 8.36052 8.16547 4.74962 8.77735 0.169576L8.8 0Z" fill="#0A2D47"/>
<path fill-rule="evenodd" clip-rule="evenodd" d="M8.80003 6.75C7.19841 6.75 5.85603 7.70956 5.50002 9C5.85603 10.2904 7.19841 11.25 8.80003 11.25C10.4016 11.25 11.744 10.2904 12.1 9C11.744 7.70956 10.4016 6.75 8.80003 6.75ZM8.77705 9.99079C9.38033 9.99079 9.86938 9.56797 9.86938 9.04639C9.86938 8.52479 9.38033 8.10197 8.77705 8.10197C8.17376 8.10197 7.68471 8.52479 7.68471 9.04639C7.68471 9.56797 8.17376 9.99079 8.77705 9.99079Z" fill="#F1F2F6"/>
</svg>
