<svg width="19" height="16" viewBox="0 0 19 16" fill="none" xmlns="http://www.w3.org/2000/svg">
<path d="M13.4062 0.260271C12.7699 0.258571 12.1396 0.383088 11.5517 0.626615C10.9638 0.870142 10.43 1.22784 9.98125 1.67902L9.5 2.16027L9.01875 1.67902C8.34134 1.00163 7.47827 0.540323 6.53869 0.353434C5.59911 0.166545 4.62521 0.262467 3.74014 0.629071C2.85507 0.995675 2.09859 1.6165 1.56635 2.41303C1.03411 3.20956 0.750019 4.14603 0.75 5.10402C0.75 10.5728 8.85859 15.0001 9.20391 15.1821C9.29492 15.2311 9.39665 15.2567 9.5 15.2567C9.60335 15.2567 9.70508 15.2311 9.79609 15.1821C10.1414 15.0001 18.25 10.5728 18.25 5.10402C18.2486 3.81982 17.7378 2.58864 16.8297 1.68057C15.9216 0.772506 14.6904 0.261719 13.4062 0.260271ZM9.5 13.9165C8.07344 13.0853 2 9.29855 2 5.10402C1.9999 4.39317 2.21062 3.69827 2.6055 3.10719C3.00038 2.51611 3.56168 2.05542 4.21842 1.78337C4.87515 1.51133 5.59781 1.44016 6.29499 1.57887C6.99217 1.71757 7.63256 2.05992 8.13516 2.56261L8.61641 3.04386L7.80781 3.85402C7.69069 3.97122 7.6249 4.13013 7.6249 4.29582C7.6249 4.46151 7.69069 4.62042 7.80781 4.73761L9.72422 6.65402L8.43281 7.94465C8.31554 8.06192 8.24965 8.22098 8.24965 8.38683C8.24965 8.55269 8.31554 8.71175 8.43281 8.82902C8.55009 8.9463 8.70915 9.01218 8.875 9.01218C9.04085 9.01218 9.19991 8.9463 9.31719 8.82902L11.05 7.09543C11.1671 6.97823 11.2329 6.81932 11.2329 6.65363C11.2329 6.48794 11.1671 6.32903 11.05 6.21183L9.13359 4.29386L10.8648 2.56261C11.3674 2.05992 12.0078 1.71757 12.705 1.57887C13.4022 1.44016 14.1249 1.51133 14.7816 1.78337C15.4383 2.05542 15.9996 2.51611 16.3945 3.10719C16.7894 3.69827 17.0001 4.39317 17 5.10402C17 9.2923 10.925 13.0845 9.5 13.9165Z" fill="#0A2D47"/>
</svg>
