<svg width="33" height="33" viewBox="0 0 33 33" fill="none" xmlns="http://www.w3.org/2000/svg">
<g clip-path="url(#clip0_1_1286)">
<g clip-path="url(#clip1_1_1286)">
<g clip-path="url(#clip2_1_1286)">
<path d="M16.3555 32.5263C25.1122 32.5263 32.211 25.4275 32.211 16.6708C32.211 7.91405 25.1122 0.815308 16.3555 0.815308C7.59874 0.815308 0.5 7.91405 0.5 16.6708C0.5 25.4275 7.59874 32.5263 16.3555 32.5263Z" fill="#0A2D47"/>
<path d="M23.875 14.9859L20.375 10.9859C20.3282 10.9325 20.2705 10.8896 20.2059 10.8602C20.1412 10.8308 20.071 10.8155 20 10.8153H13C12.9289 10.8155 12.8587 10.8308 12.7941 10.8602C12.7294 10.8896 12.6718 10.9325 12.625 10.9859L9.12497 14.9859C9.04332 15.0792 8.9992 15.1994 9.00116 15.3233C9.00312 15.4472 9.05103 15.566 9.1356 15.6566L16.1356 23.1566C16.1824 23.2067 16.239 23.2467 16.3019 23.274C16.3648 23.3014 16.4326 23.3155 16.5012 23.3155C16.5698 23.3155 16.6377 23.3014 16.7006 23.274C16.7635 23.2467 16.8201 23.2067 16.8668 23.1566L23.8668 15.6566C23.9511 15.5657 23.9985 15.4467 24 15.3228C24.0015 15.1989 23.957 15.0788 23.875 14.9859ZM22.3981 14.8153H19.75L17.5 11.8153H19.7731L22.3981 14.8153ZM13.1612 15.8153L15.0443 20.5234L10.6506 15.8153H13.1612ZM18.7612 15.8153L16.5 21.4691L14.2387 15.8153H18.7612ZM14.5 14.8153L16.5 12.1484L18.5 14.8153H14.5ZM19.8387 15.8153H22.3493L17.9556 20.5234L19.8387 15.8153ZM13.2268 11.8153H15.5L13.25 14.8153H10.6018L13.2268 11.8153Z" fill="#F9F9F7"/>
</g>
</g>
</g>
<defs>
<clipPath id="clip0_1_1286">
<rect width="32" height="32" fill="white" transform="translate(0.5 0.815308)"/>
</clipPath>
<clipPath id="clip1_1_1286">
<rect width="32" height="32" fill="white" transform="translate(0.5 0.815308)"/>
</clipPath>
<clipPath id="clip2_1_1286">
<rect width="32" height="32" fill="white" transform="translate(0.5 0.815308)"/>
</clipPath>
</defs>
</svg>
