<svg width="28" height="28" viewBox="0 0 28 28" fill="none" xmlns="http://www.w3.org/2000/svg">
<g clip-path="url(#clip0_37_364)">
<g clip-path="url(#clip1_37_364)">
<g clip-path="url(#clip2_37_364)">
<path d="M14 27.7603C21.4558 27.7603 27.5 21.7161 27.5 14.2603C27.5 6.80441 21.4558 0.760254 14 0.760254C6.54416 0.760254 0.5 6.80441 0.5 14.2603C0.5 21.7161 6.54416 27.7603 14 27.7603Z" fill="#BD2864"/>
<path d="M7.69922 14.7102L11.8888 18.76L21.1988 9.76025" fill="#BD2864"/>
</g>
</g>
</g>
<path d="M17.9062 7.26025C16.293 7.26025 14.8805 7.954 14 9.12666C13.1195 7.954 11.707 7.26025 10.0938 7.26025C8.80955 7.2617 7.57837 7.77249 6.6703 8.68055C5.76223 9.58862 5.25145 10.8198 5.25 12.104C5.25 17.5728 13.3586 21.9993 13.7039 22.1821C13.7949 22.2311 13.8967 22.2567 14 22.2567C14.1033 22.2567 14.2051 22.2311 14.2961 22.1821C14.6414 21.9993 22.75 17.5728 22.75 12.104C22.7486 10.8198 22.2378 9.58862 21.3297 8.68055C20.4216 7.77249 19.1904 7.2617 17.9062 7.26025ZM14 20.9165C12.5734 20.0853 6.5 16.2985 6.5 12.104C6.50124 11.1513 6.88026 10.2379 7.55396 9.56421C8.22765 8.89052 9.14101 8.51149 10.0938 8.51025C11.6133 8.51025 12.8891 9.31963 13.4219 10.6196C13.469 10.7343 13.5491 10.8323 13.652 10.9013C13.7549 10.9703 13.8761 11.0071 14 11.0071C14.1239 11.0071 14.2451 10.9703 14.348 10.9013C14.4509 10.8323 14.531 10.7343 14.5781 10.6196C15.1109 9.31729 16.3867 8.51025 17.9062 8.51025C18.859 8.51149 19.7724 8.89052 20.446 9.56421C21.1197 10.2379 21.4988 11.1513 21.5 12.104C21.5 16.2923 15.425 20.0845 14 20.9165Z" fill="#F9F9F7"/>
<defs>
<clipPath id="clip0_37_364">
<rect width="27" height="27" fill="white" transform="translate(0.5 0.760254)"/>
</clipPath>
<clipPath id="clip1_37_364">
<rect width="27" height="27" fill="white" transform="translate(0.5 0.760254)"/>
</clipPath>
<clipPath id="clip2_37_364">
<rect width="27" height="27" fill="white" transform="translate(0.5 0.760254)"/>
</clipPath>
</defs>
</svg>
