<svg width="104" height="18" viewBox="0 0 104 18" fill="#F9F9F7" xmlns="http://www.w3.org/2000/svg">
<path d="M8.8 0C9.42437 4.67359 13.1027 8.34928 17.7767 8.97033L18 9L17.7767 9.02967C13.1027 9.65072 9.42437 13.3264 8.8 18L8.77735 17.8304C8.16547 13.2504 4.57627 9.63948 0 9C4.57627 8.36052 8.16547 4.74962 8.77735 0.169576L8.8 0Z" fill="#F9F9F7"/>
<path fill-rule="evenodd" clip-rule="evenodd" d="M8.80002 6.75C7.19841 6.75 5.85603 7.70956 5.50001 9C5.85603 10.2904 7.19841 11.25 8.80002 11.25C10.4016 11.25 11.744 10.2904 12.1 9C11.744 7.70956 10.4016 6.75 8.80002 6.75ZM8.77704 9.99079C9.38033 9.99079 9.86938 9.56797 9.86938 9.04639C9.86938 8.52479 9.38033 8.10197 8.77704 8.10197C8.17376 8.10197 7.68471 8.52479 7.68471 9.04639C7.68471 9.56797 8.17376 9.99079 8.77704 9.99079Z" fill="#F1F2F6"/>
<path d="M96.2656 6.72279C97.5513 6.72279 100.129 6.72279 104 6.72279C103.07 8.11785 101.203 10.8874 98.3993 15.0316C99.2883 15.0316 101.073 15.0316 103.754 15.0316C103.754 15.0316 103.767 15.0384 103.795 15.0521C103.795 15.2846 103.795 15.7496 103.795 16.4471C103.781 16.4471 103.767 16.454 103.754 16.4677C102.413 16.4677 99.7259 16.4677 95.6912 16.4677C95.6912 16.4677 95.6912 16.4608 95.6912 16.4471C96.6349 15.0658 98.5018 12.303 101.292 8.15888C100.458 8.15888 98.7822 8.15888 96.2656 8.15888C96.2656 8.15888 96.2588 8.15204 96.2451 8.13836C96.2451 7.90585 96.2451 7.44767 96.2451 6.76382C96.2451 6.75014 96.252 6.73647 96.2656 6.72279Z" fill="#F9F9F7"/>
<path d="M91.6907 6.72282C91.9232 6.72282 92.3951 6.72282 93.1063 6.72282C93.1063 6.72282 93.1131 6.72282 93.1268 6.72282C93.1268 8.35039 93.1268 11.5987 93.1268 16.4677C93.1131 16.4677 93.1063 16.4677 93.1063 16.4677C92.8738 16.4677 92.4019 16.4677 91.6907 16.4677C91.6907 16.4677 91.6839 16.4677 91.6702 16.4677C91.6702 14.8401 91.6702 11.5918 91.6702 6.72282C91.6839 6.72282 91.6907 6.72282 91.6907 6.72282ZM92.3677 1.45034C92.3814 1.45034 92.4087 1.45034 92.4498 1.45034C92.696 1.45034 92.9285 1.55975 93.1473 1.77858C93.3388 1.99742 93.4345 2.21625 93.4345 2.43508C93.4345 2.44876 93.4345 2.46927 93.4345 2.49663C93.4345 2.78384 93.3046 3.03687 93.0447 3.2557C92.8532 3.41982 92.6481 3.50189 92.4293 3.50189C92.4156 3.50189 92.3951 3.50189 92.3677 3.50189C92.0668 3.50189 91.8069 3.36512 91.5881 3.09158C91.4513 2.91378 91.383 2.7223 91.383 2.51714C91.383 2.50346 91.383 2.47611 91.383 2.43508C91.383 2.17522 91.4924 1.93587 91.7112 1.71704C91.9164 1.53924 92.1352 1.45034 92.3677 1.45034Z" fill="#F9F9F7"/>
<path d="M72.6728 1.45034C72.7001 1.45034 72.7685 1.66917 72.878 2.10683C73.5208 4.66443 74.4918 8.50084 75.7912 13.616C75.8048 13.616 75.8185 13.616 75.8322 13.616C76.3519 11.9748 77.3982 8.68547 78.9711 3.74807C79.0942 3.36512 79.3472 2.5992 79.7301 1.45034C79.9079 1.45034 80.2567 1.45034 80.7764 1.45034C80.7901 1.45034 80.9337 1.89484 81.2073 2.78384C81.9868 5.191 83.1494 8.80173 84.6949 13.616C84.6949 13.616 84.7017 13.616 84.7154 13.616C85.2351 11.5918 86.2677 7.5366 87.8132 1.45034C87.8132 1.45034 87.8201 1.45034 87.8338 1.45034C88.0799 1.45034 88.5792 1.45034 89.3314 1.45034C89.3451 1.45034 89.3587 1.45034 89.3724 1.45034C88.7296 3.9122 87.4508 8.82908 85.536 16.201C85.495 16.3788 85.4676 16.4677 85.454 16.4677C85.1667 16.4677 84.7291 16.4677 84.141 16.4677C84.0999 16.4677 83.9974 16.1805 83.8332 15.606C83.04 13.1442 81.8501 9.43771 80.2635 4.48663C79.6207 6.48347 78.3351 10.4772 76.4066 16.4677C76.1741 16.4677 75.7228 16.4677 75.0526 16.4677C75.0389 16.4677 74.909 15.9685 74.6628 14.9701C73.8832 11.9611 72.7138 7.45454 71.1546 1.45034C71.4145 1.45034 71.9206 1.45034 72.6728 1.45034Z" fill="#F9F9F7"/>
<path d="M57.6144 6.72279C57.6554 6.72279 57.717 6.72279 57.7991 6.72279C59.3172 6.72279 60.4524 7.18781 61.2046 8.11785C61.9705 7.18781 63.0989 6.72279 64.5897 6.72279C64.6581 6.72279 64.7538 6.72279 64.8769 6.72279C66.7096 6.72279 67.9748 7.39296 68.6723 8.73331C68.8911 9.21201 69.0005 9.70438 69.0005 10.2104C69.0005 11.5918 69.0005 13.6707 69.0005 16.4471C69.0005 16.4471 68.9937 16.454 68.98 16.4677C68.7475 16.4677 68.2893 16.4677 67.6055 16.4677C67.5918 16.4677 67.5781 16.4608 67.5644 16.4471C67.5644 15.4077 67.5644 13.3356 67.5644 10.2309C67.5644 9.41032 67.1541 8.8017 66.3335 8.40506C65.9232 8.24094 65.4582 8.15888 64.9385 8.15888C64.8564 8.15888 64.7401 8.15888 64.5897 8.15888C63.3041 8.15888 62.4698 8.59654 62.0868 9.47187C61.9911 9.70438 61.9432 10.019 61.9432 10.4156C61.9432 11.7559 61.9432 13.7665 61.9432 16.4471C61.9295 16.4471 61.9158 16.454 61.9022 16.4677C61.6696 16.4677 61.2115 16.4677 60.5276 16.4677C60.5139 16.4677 60.5003 16.4608 60.4866 16.4471C60.4866 15.4214 60.4866 13.3767 60.4866 10.313C60.4866 9.30091 59.9737 8.6239 58.9479 8.28197C58.7017 8.19991 58.2299 8.15888 57.5323 8.15888C56.6844 8.15888 56.0484 8.33668 55.6244 8.69228C55.1184 9.02053 54.8653 9.58813 54.8653 10.3951C54.8653 11.7354 54.8653 13.7528 54.8653 16.4471C54.8517 16.4471 54.838 16.454 54.8243 16.4677C54.5918 16.4677 54.1336 16.4677 53.4498 16.4677C53.4498 16.4677 53.4361 16.4608 53.4087 16.4471C53.4087 14.8469 53.4087 11.6602 53.4087 6.88692C53.4224 6.88692 53.4361 6.88008 53.4498 6.8664C53.6823 6.8664 54.1405 6.8664 54.8243 6.8664C54.8243 6.8664 54.838 6.87324 54.8653 6.88692C54.8653 7.05104 54.8653 7.37245 54.8653 7.85114C55.6039 7.09891 56.5203 6.72279 57.6144 6.72279Z" fill="#F9F9F7"/>
<path d="M46.3924 6.62015C47.8011 6.62015 49.0116 7.2493 50.0237 8.50758C50.6938 9.47865 51.0289 10.4292 51.0289 11.3592C51.0289 11.3866 51.0289 11.4276 51.0289 11.4823C51.0289 11.7969 51.0084 11.9542 50.9674 11.9542C49.2304 11.9542 46.6318 11.9542 43.1715 11.9542C43.1715 12.2824 43.3082 12.7475 43.5818 13.3492C43.9921 14.1152 44.587 14.6417 45.3666 14.9289C45.7359 15.0657 46.071 15.1341 46.3719 15.1341C47.3019 15.1341 48.1157 14.7238 48.8132 13.9032C49.0458 13.5749 49.1962 13.3082 49.2646 13.1031C49.2783 13.1031 49.2919 13.1031 49.3056 13.1031C49.8527 13.3219 50.2835 13.5134 50.5981 13.6775C50.4476 14.1015 50.1126 14.6007 49.5928 15.1751C48.6491 16.0915 47.5755 16.5497 46.3719 16.5497C44.9495 16.5497 43.7322 15.9274 42.7201 14.6828C42.05 13.739 41.7149 12.7269 41.7149 11.6465C41.7149 11.6328 41.7149 11.6054 41.7149 11.5644C41.7149 10.1967 42.2072 8.99995 43.192 7.97418C44.1084 7.07149 45.1752 6.62015 46.3924 6.62015ZM43.3151 10.5386C44.3409 10.5386 46.3856 10.5386 49.4492 10.5386C49.162 9.63593 48.6765 8.97944 47.9926 8.56913C47.5003 8.24088 46.96 8.07676 46.3719 8.07676C45.3735 8.07676 44.5187 8.54177 43.8075 9.47181C43.5886 9.80006 43.4245 10.1557 43.3151 10.5386Z" fill="#F9F9F7"/>
<path d="M32.8932 1.45034C32.9206 1.45034 32.9684 1.45034 33.0368 1.45034C34.8012 1.45034 36.3877 2.16154 37.7964 3.58395C38.3435 4.18574 38.7538 4.74649 39.0274 5.26622C39.0274 5.29358 39.041 5.33461 39.0684 5.38931C38.2614 5.82698 37.8375 6.04581 37.7964 6.04581C37.7827 6.04581 37.7759 6.04581 37.7759 6.04581C37.6255 5.66285 37.2904 5.17048 36.7706 4.56869C35.6628 3.44718 34.4045 2.88642 32.9958 2.88642C32.9821 2.88642 32.9548 2.88642 32.9137 2.88642C31.3682 2.88642 30.0142 3.5566 28.8517 4.89694C27.9216 6.1142 27.4566 7.45454 27.4566 8.91798C27.4566 8.93166 27.4566 8.95901 27.4566 9.00005C27.4566 10.4772 27.9216 11.8107 28.8517 13.0006C30.0005 14.3546 31.3682 15.0316 32.9548 15.0316C34.2814 15.0316 35.485 14.5392 36.5655 13.5545C37.1126 12.9801 37.4613 12.5219 37.6118 12.18C37.8033 11.8927 38.0016 11.4414 38.2067 10.8259C38.2614 10.6344 38.3162 10.3883 38.3709 10.0874C37.4545 10.0874 36.0868 10.0874 34.2678 10.0874C34.2541 10.0874 34.2404 10.0805 34.2267 10.0669C34.2267 9.83434 34.2267 9.36932 34.2267 8.6718C34.2267 8.6718 34.2404 8.66496 34.2678 8.65128C35.1978 8.65128 37.0784 8.65128 39.9095 8.65128C39.9095 8.65128 39.9164 8.65812 39.93 8.6718C39.93 9.45139 39.8275 10.272 39.6223 11.1337C39.1163 12.7749 38.2341 14.0947 36.9758 15.0932C35.7312 16.0095 34.3908 16.4677 32.9548 16.4677C31.1904 16.4677 29.6176 15.8044 28.2362 14.4777C27.6618 13.8759 27.2514 13.3288 27.0053 12.8364C26.3351 11.6192 26 10.3472 26 9.02056C26 8.99321 26 8.95901 26 8.91798C26 6.94849 26.6702 5.20467 28.0105 3.68653C28.585 3.08474 29.0773 2.66759 29.4876 2.43508C30.5818 1.77858 31.717 1.45034 32.8932 1.45034Z" fill="#F9F9F7"/>
</svg>
